<?xml version="1.0" encoding="utf-8"?>
<!-- Generator: Adobe Illustrator 26.0.2, SVG Export Plug-In . SVG Version: 6.00 Build 0)  -->
<svg version="1.1" id="Layer_1" xmlns="http://www.w3.org/2000/svg" xmlns:xlink="http://www.w3.org/1999/xlink" x="0px" y="0px"
	 viewBox="0 0 181.33 154.15" style="enable-background:new 0 0 181.33 154.15;" xml:space="preserve">
<g>
	<path d="M55,45.01c-1.18,0.28-2.55-0.04-3.55,0.86c0.97-0.08,1.95-0.16,2.92-0.24c0.02,0.03,0.04,0.07,0.05,0.1
		c-0.21,0.08-0.42,0.19-0.64,0.23c-1.96,0.31-3.92,0.61-5.88,0.89c-0.63,0.09-1.29,0.07-1.91,0.18c-0.39,0.07-0.74,0.28-1.17,0.46
		c0.16,0.13,0.29,0.23,0.42,0.34c-0.04,0.02-0.07,0.05-0.11,0.06c-1.02,0.06-1.69,0.68-2.49,1.07c-0.26,0.13-0.57,0.22-0.79,0.38
		c-0.2,0.15-0.41,0.36-0.45,0.56c-0.03,0.12,0.23,0.29,0.39,0.41c0.2,0.15,0.46,0.24,0.62,0.41c0.05,0.05-0.13,0.37-0.22,0.37
		c-0.35,0.02-0.72,0.01-1.04-0.08c-0.46-0.13-0.89-0.34-1.42-0.55c0.35-0.54,0.77-1.21,1.2-1.87c-0.05-0.02-0.09-0.05-0.14-0.07
		c-0.98,0.48-1.93,1-2.95,1.42c-0.49,0.21-1.09,0.32-1.61-0.06c-0.87-0.64-2.03-0.45-3.09-0.5c-0.74-0.04-1.48,0-2.23,0
		c-0.01-0.08-0.03-0.16-0.04-0.25c0.46-0.08,0.93-0.24,1.38-0.23c2.8,0.06,5.57-0.15,8.32-0.72c0.44-0.09,0.8-0.17,0.94-0.54
		c0.15-0.4,0.13-0.76-0.72-1.1c0.76-0.52,1.43-0.98,2.1-1.43c-0.07-0.05-0.14-0.1-0.21-0.15c-1.35,0.11-2.71,0.21-4.06,0.34
		c-1.56,0.14-3.12,0.3-4.68,0.48c-0.37,0.04-0.71,0.29-1.08,0.32c-2,0.19-3.99,0.38-6,0.49c-3.02,0.16-6.04,0.24-9.07,0.38
		c-1.13,0.05-2.26,0.18-3.36,0.27c0.48-0.97,1.5-1.28,2.65-1.43c-0.03-0.09-0.07-0.18-0.1-0.27c-0.52,0.02-1.04,0.04-1.6,0.06
		c0.3-0.26,0.54-0.48,0.77-0.69c-0.04-0.05-0.08-0.1-0.12-0.15c-0.51,0.04-1.03,0.09-1.6,0.13c0.1-0.35,0.18-0.62,0.28-0.94
		c-0.32,0.04-0.55,0.07-0.81,0.1c-0.08-0.38-0.15-0.74-0.25-1.2c1.44-0.61,2.88-1.21,4.32-1.82c-0.02-0.06-0.05-0.11-0.07-0.17
		c-0.4,0.03-0.8,0.07-1.2,0.1c-0.71,0.05-1.23-0.26-1.47-0.79c-0.12-0.25-0.38-0.45-0.6-0.7c0.33-0.24,0.58-0.9,1.57-0.64
		c-0.01-0.07-0.01-0.15-0.02-0.22c-0.2-0.05-0.4-0.1-0.71-0.17c0.23-0.23,0.45-0.44,0.66-0.65c-1.82,0.02-3.65,0.03-5.47,0.05
		c-0.01-0.1-0.02-0.2-0.03-0.31c1.3-0.28,2.59-0.55,3.89-0.83c-0.01-0.06-0.01-0.12-0.02-0.19c-0.14-0.08-0.27-0.16-0.61-0.35
		c1.11-0.23,2.05-0.42,2.99-0.61c0-0.03,0-0.07,0.01-0.1c-0.17-0.02-0.37-0.02-0.51-0.08c-0.19-0.1-0.48-0.24-0.49-0.38
		c-0.06-0.86-0.25-1.06-1.37-1.06c-0.59,0-0.87-0.23-1.16-0.69c0.58-0.16,1.11-0.3,1.64-0.44c0-0.06,0.01-0.12,0.01-0.19
		c-0.67-0.03-1.33-0.07-1.99-0.1c-0.12-0.26-0.24-0.53-0.36-0.8c0.43-0.15,0.9-0.32,1.33-0.47c-0.21-0.49-0.64-0.95-0.49-1.25
		c0.18-0.35,0.85-0.56,1.26-0.93c-1.33,0.34-2.65,0.68-3.98,1.02c-0.05-0.07-0.1-0.14-0.15-0.21c0.1-0.1,0.17-0.26,0.29-0.3
		c1.28-0.32,2.56-0.63,3.86-0.92c0.42-0.09,0.62-0.22,0.49-0.56c-0.14-0.35,0.01-0.56,0.45-0.74c0.3-0.12,0.51-0.38,0.77-0.58
		c-0.83-0.49-0.81-0.82,0.13-1.18c1.21-0.47,2.45-0.91,3.75-1.38c-0.3,0.04-0.58,0.1-0.85,0.1c-0.22,0-0.44-0.07-0.66-0.11
		c0.02-0.07,0.04-0.13,0.05-0.2c0.22-0.05,0.45-0.1,0.67-0.15c-1.4-0.05-2.71-0.64-4.19-0.17c-0.67,0.21-1.5,0.29-2.03-0.35
		c-0.1-0.12-0.54-0.12-0.8-0.09c-0.58,0.07-1.16,0.22-1.74,0.27c-0.23,0.02-0.47-0.15-0.7-0.23c0.18-0.12,0.33-0.3,0.53-0.34
		c1.61-0.36,3.21-0.73,4.83-1.04c0.91-0.17,1.84-0.24,2.77-0.34c0.87-0.09,0.94-0.17,0.75-0.92c-3.11,0.32-6.24,0.86-9.38,0.55
		c-0.01-0.09-0.02-0.17-0.03-0.26c0.78-0.11,1.55-0.21,2.33-0.32c0-0.04,0.01-0.07,0.01-0.11c-0.39-0.04-0.77-0.09-1.16-0.13
		c0-0.08,0-0.17,0-0.25c0.75-0.06,1.5-0.12,2.25-0.19c1.71-0.17,3.41-0.33,5.12-0.52c0.2-0.02,0.54-0.17,0.55-0.27
		c0.09-0.79,0.86-0.81,1.54-0.92c0.96-0.15,1.94-0.24,2.91-0.4c2.06-0.34,4.14-0.61,6.15-1.11c1.94-0.48,3.91-0.44,5.86-0.67
		c2.02-0.24,4.06-0.32,6.08-0.56c0.79-0.09,1.54-0.44,2.33-0.62c1.72-0.4,3.44-0.78,5.16-1.17c0.03-0.01,0.05-0.06,0.14-0.19
		c-1.3,0.11-2.53,0.21-3.75,0.31c-2.5,0.2-4.99,0.38-7.49,0.59c-2.17,0.18-4.34,0.39-6.51,0.56c-0.45,0.04-0.91-0.03-1.36-0.04
		c-0.12,0-0.24,0-0.36,0.01c-2.38,0.26-4.77,0.74-7.13,0.72c-2.33-0.02-4.62,0.31-6.93,0.28c-0.81-0.01-1.61-0.17-2.42-0.26
		c0-0.09,0-0.18,0-0.26c0.18-0.03,0.37-0.09,0.55-0.1c1.27-0.05,2.53-0.1,3.8-0.15c0.03,0,0.05-0.06,0.15-0.18
		c-1.48-0.17-2.92-0.34-4.35-0.51c0-0.09-0.01-0.18-0.01-0.27c0.83-0.15,1.66-0.33,2.49-0.43c0.87-0.11,1.75-0.15,2.65-0.23
		c0.06-0.75,0.83-0.59,1.32-0.73c0.79-0.23,1.61-0.4,2.43-0.54c1.29-0.22,2.58-0.43,3.88-0.58c1.82-0.21,3.65-0.4,5.47-0.55
		c1.09-0.09,2.19-0.05,3.29-0.13c1.25-0.09,2.49-0.25,3.74-0.38c1.49-0.16,2.99-0.29,4.48-0.49c1.18-0.16,2.35-0.41,3.53-0.62
		c1.04-0.19,2.07-0.44,3.13-0.58c0.36-0.05,0.96-0.43,1.16,0.19c0.01,0.03,0.18,0.05,0.28,0.04c0.87-0.08,1.73-0.17,2.59-0.26
		c0.38-0.04,0.77-0.08,1.15-0.16c0.61-0.12,1.2-0.32,1.81-0.38c0.53-0.06,1.08,0.05,1.62,0.04c1.07-0.02,2.14-0.03,3.21-0.11
		c1.95-0.16,3.89-0.34,5.83-0.57c1.22-0.14,2.42-0.43,3.64-0.58c1.28-0.15,2.58-0.18,3.86-0.3c1.81-0.17,3.61-0.41,5.42-0.58
		c1.2-0.11,2.4-0.14,3.6-0.21c0.01,0.06,0.02,0.11,0.03,0.17c-0.8,0.07-1.61,0.13-2.41,0.2c0,0.06,0,0.11,0,0.17
		c0.53,0.16,1.02,0.46,1.66,0.06c0.12-0.08,0.33-0.08,0.5-0.08c0.63,0,1.27,0.08,1.9,0.02c0.64-0.07,1.27-0.28,1.91-0.41
		c0.55-0.11,1.12-0.35,1.62,0.08c0.08,0.07,0.34,0.07,0.49,0.03c0.72-0.19,1.46-0.07,2.18-0.18c1.78-0.28,3.54-0.62,5.33-0.83
		c1.72-0.2,3.46-0.26,5.19-0.41c1.8-0.16,3.59-0.35,5.39-0.52c0.12-0.01,0.24-0.04,0.36-0.05c1.33-0.1,2.66-0.16,3.99-0.29
		c0.87-0.09,1.72-0.27,2.59-0.41c0.22-0.03,0.44-0.07,0.65-0.09c1.58-0.15,3.16-0.27,4.73-0.44c0.75-0.08,1.48-0.32,2.23-0.38
		c1.38-0.1,2.76-0.1,4.13-0.17c0.67-0.03,1.34-0.11,2.08-0.17c-0.43,0.35-0.75,0.6-1.11,0.89c4.87,0.15,9.56-0.9,14.32-1.11
		c0-0.05,0-0.09,0-0.14c-0.56,0.02-1.11,0.07-1.67,0.06c-0.56-0.01-1.12-0.09-1.68-0.24c0.18-0.03,0.36-0.07,0.53-0.07
		c0.81-0.01,1.48-0.18,1.74-0.88c0.02-0.07,0.11-0.14,0.19-0.17c1.18-0.42,2.29-0.88,3.7-0.64c2.02,0.34,4.1,0.51,6.21,0.49
		c0.39,0,0.78,0.18,1.17,0.29c0.03,0.01,0.01,0.21,0,0.21c-0.43,0.05-0.85,0.11-1.28,0.12c-0.71,0.01-1.41-0.02-2.12-0.03
		c-0.01,0.09-0.03,0.19-0.04,0.28c0.82,0.05,1.64,0.1,2.46,0.16c-0.01,0.06-0.02,0.12-0.03,0.18c-0.98,0.08-1.97,0.16-3,0.25
		c0.05,0.43-0.43,0.46-0.89,0.5c-3.03,0.26-6.06,0.49-9.09,0.78c-1.8,0.17-3.58,0.45-5.38,0.68c-0.29,0.04-0.58,0.03-0.87,0.09
		c-0.13,0.02-0.24,0.14-0.36,0.22c0.12,0.06,0.24,0.18,0.35,0.18c1.29-0.06,2.57-0.14,3.86-0.21c1.56-0.09,3.12-0.19,4.68-0.28
		c0.09-0.01,0.19,0.02,0.32,0.04c-0.11,0.44,0.05,0.65,0.66,0.61c0.28-0.02,0.58,0.14,0.87,0.24c2,0.64,4.16,0.58,6.27,0.78
		c1.46,0.14,2.89,0.4,4.42,0.62c-0.36,0.58-0.13,0.77,0.44,0.91c0.54,0.14,0.99,0.47,1.52,0.65c0.62,0.2,1.28,0.33,1.98,0.5
		c0.07,0.37-0.33,0.48-0.71,0.5c-1.32,0.04-2.63,0.04-3.95,0.06c-0.4,0.01-0.8,0.02-1.21,0.03c-0.02,0.06-0.04,0.13-0.06,0.19
		c1.3,0.41,2.6,0.85,3.92,1.22c0.89,0.25,1.84,0.4,2.75,0.63c0.14,0.03,0.2,0.24,0.29,0.37c0.08,0.13,0.14,0.27,0.22,0.44
		c-0.37,0.1-0.75,0.21-1.19,0.34c1.29,0.35,2.54,0.69,3.81,1.03c-0.48,0.65-1.12,0.55-1.66,0.56c-0.54,0.01-1.07-0.1-1.65-0.16
		c0.02,0.27,0.04,0.43,0.05,0.65c-0.52,0.01-0.99,0.02-1.47,0.03c0.05,0.39,0.05,0.39,1.25,0.47c0.52,0.04,1.03,0.11,1.69,0.18
		c-0.28,0.18-0.43,0.28-0.65,0.42c0.21,0.06,0.38,0.11,0.57,0.16c-0.06,0.06-0.08,0.11-0.11,0.12c-1.54,0.29-3.09,0.58-4.63,0.88
		c-0.3,0.06-0.57,0.29-0.87,0.32c-0.94,0.1-1.89,0.13-2.84,0.2c-0.14,0.01-0.28,0.05-0.42,0.08c-0.01,0.06-0.02,0.12-0.03,0.18
		c1.7,0.13,3.41,0.27,5.17,0.41c-0.73,0.62-1.35,1.14-2.07,1.74c0.43-0.01,0.77-0.01,1.12-0.02c0.01,0.08,0.02,0.16,0.03,0.23
		c-1.43,0.17-2.87,0.34-4.3,0.51c-0.01,0.05-0.02,0.09-0.03,0.14c0.66,0.11,1.33,0.22,1.99,0.34c0,0.05,0,0.11,0.01,0.16
		c-3.01,0.17-6.03,0.34-9.14,0.52c0.61,0.39,1.46,0.39,2.09,0.14c0.22-0.09,0.53-0.03,0.8-0.02c0.14,0.01,0.28,0.08,0.41,0.08
		c1.47-0.03,2.94-0.05,4.41-0.1c0.6-0.02,1.2-0.09,1.99-0.16c-0.61,0.69-1.46,0.45-2.21,0.73c0.34,0.11,0.56,0.18,0.89,0.29
		c-0.34,0.05-0.58,0.09-0.82,0.12c-0.01,0.04-0.02,0.09-0.03,0.13c0.83,0.1,1.65,0.21,2.44,0.31c0.13,0.21,0.27,0.45,0.39,0.65
		c-0.64,0.18-1.33,0.37-2.01,0.56c-0.12,0.04-0.33,0.1-0.33,0.16c-0.04,0.4-0.41,0.37-0.74,0.42c-0.19,0.03-0.36,0.12-0.55,0.18
		c0.02,0.05,0.03,0.1,0.05,0.15c0.32,0,0.65-0.01,1.06-0.01c-0.13,0.15-0.22,0.26-0.31,0.36c0.37,0.13,0.72,0.26,1.07,0.38
		c-0.32,0.35-0.63,0.69-0.94,1.03c0.69,0.72,1.84,0.63,2.86,0.82c0.42,0.08,0.79,0.29,1.14,0.43c-0.44,0.21-0.89,0.42-1.41,0.67
		c0.52,0.1,0.94,0.19,1.37,0.27c0,0.05,0,0.11,0,0.16c-0.61,0.12-1.22,0.24-1.84,0.37c0,0.04,0.01,0.08,0.01,0.12
		c0.22,0.03,0.43,0.05,0.77,0.1c-0.53,0.11-0.94,0.2-1.36,0.28c-0.01,0.05-0.02,0.11-0.03,0.16c0.84,0.27,1.81,0.02,2.7,0.14
		c0.01,0.05,0.01,0.11,0.02,0.16c-1.53,0.32-3.07,0.64-4.6,0.96c-0.02,0.03-0.03,0.05-0.05,0.08c1.28,0.11,2.57,0.22,4.05,0.34
		c-2.09,0.29-3.97,0.56-5.86,0.82c0,0.05,0.01,0.11,0.01,0.16c0.56-0.05,1.12-0.09,1.67-0.14c0.01,0.06,0.02,0.12,0.03,0.18
		c-0.41,0.06-0.82,0.12-1.22,0.19c-0.98,0.16-1.95,0.34-2.93,0.47c-1.96,0.26-3.92,0.51-5.88,0.71c-0.92,0.09-1.85,0.03-2.77,0.08
		c-0.3,0.02-0.59,0.21-0.9,0.25c-1.14,0.15-2.28,0.27-3.42,0.4c-0.43,0.05-0.87,0.05-1.29,0.12c-0.44,0.07-0.85,0.27-1.29,0.31
		c-3.78,0.38-7.55,0.77-11.34,1.08c-3.65,0.3-7.3,0.5-10.95,0.78c-1.49,0.11-3.02,0.15-4.44,0.48c-1.01,0.24-1.91-0.01-2.87,0.11
		c-3.89,0.48-7.79,0.92-11.69,1.37c-2.96,0.34-5.92,0.73-8.89,1.01c-4.56,0.43-9.12,0.75-13.68,1.18c-3,0.28-6,0.67-8.99,1
		c-0.98,0.11-1.97,0.11-2.93,0.27c-2.09,0.35-4.17,0.77-6.25,1.16c-0.91,0.17-1.83,0.33-2.74,0.51c-0.33,0.06-0.71,0.1-0.96,0.26
		c-0.26,0.17-0.39,0.47-0.58,0.72c0.34,0.14,0.66,0.36,1.02,0.4c0.66,0.08,1.51-0.13,1.97,0.13c0.87,0.48,1.49-0.21,2.24-0.16
		c0.8,0.06,1.55-0.21,2.25-0.59c0.27-0.15,0.69-0.14,1.05-0.17c0.34-0.03,0.68-0.03,1.01-0.02c0.7,0.02,1.4,0.05,2.1,0.07
		C55.01,44.92,55.01,44.97,55,45.01z M125.09,18.73c-0.02,0.05-0.04,0.11-0.06,0.16c-3.82,0.32-7.64,0.64-11.46,0.95
		c0.65,0.12,1.29,0.26,1.93,0.22c3.72-0.21,7.44-0.46,11.16-0.69c1.27-0.08,2.54-0.13,3.8-0.26c2.26-0.23,4.52-0.48,6.77-0.78
		c0.54-0.07,1.06-0.34,1.55-0.57c0.16-0.07,0.18-0.32,0.31-0.57c-1.35,0.06-2.52,0.1-3.69,0.18c-2.79,0.19-5.57,0.38-8.36,0.61
		c-0.79,0.07-1.57,0.28-2.35,0.42c0,0.05,0.01,0.1,0.01,0.15C124.83,18.61,124.96,18.67,125.09,18.73z M121.91,22.41
		c-0.01,0.06-0.02,0.12-0.03,0.19c0.31,0.03,0.63,0.11,0.94,0.09c0.73-0.03,1.47-0.11,2.2-0.17c2.37-0.19,4.73-0.42,7.1-0.56
		c1.27-0.08,2.56-0.37,3.82-0.04c0.19,0.05,0.35,0.18,0.52,0.27c-0.21,0.08-0.4,0.2-0.62,0.24c-0.21,0.04-0.43,0-0.65,0.02
		c-0.66,0.05-1.32,0.11-1.98,0.16c0.18,0.16,0.38,0.14,0.5,0.21c1.28,0.69,2.52,0.06,3.85-0.16c-0.37-0.49,0.05-0.59,0.48-0.66
		c0.19-0.03,0.49,0.03,0.56-0.05c0.61-0.66,1.51-0.6,2.35-0.71c0.22-0.03,0.42-0.19,0.62-0.29c-0.03-0.05-0.05-0.11-0.08-0.16
		C134.97,21.33,128.44,21.87,121.91,22.41z M123.35,25.95c0.01,0.04,0.01,0.08,0.02,0.12c0.61-0.05,1.21-0.1,1.82-0.15
		c1.62-0.13,3.24-0.27,4.86-0.4c0.94-0.08,1.88-0.15,2.83-0.21c2.03-0.14,4.16,0.14,6.06-1.11c-0.51-0.07-0.92-0.13-1.33-0.19
		c0.46-0.13,0.92-0.27,1.37-0.4c-0.03-0.04-0.05-0.08-0.08-0.12c-1.18,0.1-2.36,0.2-3.43,0.28c-0.26,0.19-0.47,0.42-0.75,0.53
		c-0.34,0.13-0.73,0.2-1.11,0.25c-2.38,0.31-4.77,0.6-7.16,0.92C125.42,25.59,124.39,25.78,123.35,25.95z M141.6,11.53
		c0.03-0.09,0.06-0.18,0.09-0.28c-0.31-0.09-0.62-0.26-0.92-0.25c-3.62,0.17-7.24,0.34-10.86,0.59c-1.43,0.1-2.84,0.39-4.26,0.59
		c-0.02,0-0.03,0.06-0.05,0.1c0.9,0.03,1.8,0.1,2.7,0.08c1.16-0.02,2.32-0.13,3.49-0.17c0.9-0.03,1.8-0.01,2.7-0.02
		c1.35-0.02,2.7-0.05,4.04-0.08c0.11,0,0.22-0.07,0.34-0.1c0.35-0.11,0.7-0.26,1.06-0.31C140.47,11.59,141.04,11.57,141.6,11.53z
		 M118.76,5.67c0,0.11,0,0.22,0,0.32c5.41-0.14,10.8-0.64,16.19-1.15c0-0.07-0.01-0.14-0.01-0.22
		C129.54,4.97,124.15,5.32,118.76,5.67z M140.73,20.18c-0.04-0.04-0.09-0.08-0.13-0.12c-0.38,0.08-0.75,0.19-1.14,0.23
		c-0.61,0.06-1.22,0.06-1.83,0.11c-2.47,0.21-4.93,0.44-7.4,0.66c-0.25,0.02-0.5,0.08-0.76,0.13c0.58,0.15,1.12,0.25,1.67,0.22
		c0.49-0.02,0.96-0.23,1.45-0.27c0.53-0.05,1.07,0.04,1.59-0.02c1.1-0.12,2.2-0.3,3.3-0.43c0.77-0.09,1.56-0.12,2.33-0.22
		C140.13,20.43,140.43,20.28,140.73,20.18z M112.93,5.75c0.01,0.06,0.02,0.12,0.04,0.19c0.08,0.01,0.17,0.03,0.25,0.02
		c1.44-0.12,2.88-0.23,4.32-0.37c0.23-0.02,0.45-0.19,0.86-0.36c-0.6-0.08-1.01-0.21-1.38-0.16c-1.13,0.15-2.24,0.36-3.36,0.55
		C113.41,5.65,113.17,5.71,112.93,5.75z M126.26,4.65c0-0.03,0.01-0.06,0.01-0.09c-0.08-0.02-0.17-0.05-0.25-0.05
		c-1.02-0.01-2.04-0.02-3.06-0.02c-0.17,0-0.37,0-0.51,0.06c-1.06,0.5-2.21,0.45-3.35,0.52c-0.14,0.01-0.28,0.07-0.42,0.11
		c0.01,0.03,0.02,0.07,0.03,0.1C121.23,5.06,123.75,4.86,126.26,4.65z M45.78,46.75c0.91-0.11,1.64-0.19,2.36-0.31
		c0.13-0.02,0.24-0.18,0.35-0.28c-0.15-0.05-0.32-0.17-0.46-0.15c-0.73,0.09-1.45,0.2-2.17,0.32c-0.12,0.02-0.21,0.16-0.32,0.24
		C45.66,46.67,45.77,46.75,45.78,46.75z"/>
	<path d="M127.66,143.71c-0.45,0.68-1.31,0.6-2.03,0.72c-0.69,0.12-1.4,0.17-2.11,0.25c-1.19,0.13-2.37,0.25-3.56,0.4
		c-0.57,0.07-1.13,0.19-1.7,0.3c-0.28,0.05-0.55,0.22-0.81,0.2c-1.87-0.13-3.63,0.49-5.46,0.62c-2.75,0.19-5.48,0.55-8.22,0.86
		c-1.12,0.13-2.23,0.33-3.35,0.46c-0.4,0.05-0.81-0.06-1.21-0.02c-2.99,0.31-5.97,0.65-8.96,0.95c-4.89,0.49-9.77,1-14.67,1.42
		c-3.64,0.31-7.28,0.48-10.92,0.75c-0.93,0.07-1.85,0.31-2.78,0.37c-2.51,0.16-5.02,0.28-7.53,0.4c-1.58,0.08-3.24-0.11-4.72,0.24
		c-1.72,0.41-3.41,0.4-5.11,0.55c-3.94,0.34-7.87,0.81-11.8,1.27c-2.07,0.24-4.14,0.48-6.21,0.62c-1.56,0.1-3.14,0.14-4.68,0.03
		c-1.19-0.09-2.35-0.44-3.5-0.73c-0.6-0.15-0.87-1.13-0.49-1.55c0.25-0.27,0.52-0.54,0.82-0.78c0.56-0.47,0.39-0.95,0.05-1.38
		c-0.31-0.39-0.64-0.82-1.4-0.66c-0.16,0.03-0.33,0.03-0.47,0.04c-0.38-0.6,0.11-0.92,0.58-1.17c0.68-0.37,1.06-0.8,1.39-1.44
		c0.4-0.79,0.34-1.45,0.06-2.17c-0.17-0.43-0.38-0.85-0.56-1.28c-0.16-0.39-0.33-0.75-1.19-0.43c0.22-0.33,0.28-0.58,0.44-0.64
		c0.8-0.28,0.79-0.9,0.95-1.4c0.16-0.51,0.35-1.07-0.12-1.55c-0.04-0.04-0.05-0.12-0.02-0.16c0.34-0.48,0.65-0.96,1.04-1.42
		c0.22-0.26,0.63-0.43,0.81-0.7c0.1-0.15-0.04-0.58-0.16-0.6c-0.64-0.1-0.76-0.43-0.97-0.87c-0.42-0.94-0.49-1.89-0.51-2.87
		c-0.01-0.71,0.61-1.48,1.49-1.66c0.92-0.18,1.1-0.91,1.68-1.34c0.02-0.02-0.2-0.38-0.35-0.4c-0.42-0.05-0.91,0.15-1.13-0.35
		c-0.13-0.3-0.39-0.57-0.62-0.88c-0.29,0.17-0.68,0.44-0.98,0.1c1.06-0.49,2.1-0.99,3.15-1.47c1.27-0.59,2.66-0.92,4.05-1.21
		c1.59-0.33,3.19-0.62,4.79-0.93c0.29-0.06,0.74,0.01,0.56-0.32c1.64-0.22,3.21-0.42,4.78-0.65c2.81-0.4,5.61-0.84,8.42-1.23
		c2.88-0.4,5.77-0.76,8.66-1.14c1.82-0.24,3.64-0.47,5.46-0.7c3.04-0.39,6.07-0.79,9.11-1.15c1.45-0.17,2.92-0.24,4.38-0.42
		c0.88-0.11,1.75-0.36,2.62-0.53c0.4-0.08,0.81-0.15,1.21-0.2c2.91-0.3,5.83-0.59,8.74-0.91c0.93-0.1,1.85-0.34,2.78-0.42
		c1.07-0.09,2.16-0.05,3.23-0.11c0.57-0.03,1.13-0.19,1.7-0.23c0.76-0.06,1.52-0.04,2.29-0.08c1.59-0.08,3.17-0.14,4.75-0.28
		c4.12-0.34,8.24-0.72,12.37-1.08c0.16-0.01,0.34,0.11,0.51,0.16c-0.17,0.08-0.4,0.26-0.49,0.22c-0.84-0.33-1.57,0.28-2.38,0.23
		c-0.72-0.04-1.46-0.02-2.18-0.03c-0.1,0-0.19,0.01-0.29,0.02c-1.49,0.2-2.97,0.43-4.46,0.58c-1.71,0.18-3.42,0.33-5.14,0.42
		c-1.43,0.08-2.82,0.31-4.21,0.6c2.5-0.21,5-0.42,7.5-0.62c0.01,0.05,0.02,0.09,0.03,0.14c-0.25,0.03-0.51,0.05-0.76,0.1
		c-0.54,0.09-1.07,0.23-1.61,0.27c-0.73,0.05-1.46,0.01-2.18,0.06c-0.32,0.02-0.64,0.14-0.96,0.22c-0.05,0.01-0.1,0.04-0.14,0.03
		c-1.3-0.23-2.51,0.51-3.8,0.32c-0.13-0.02-0.34-0.03-0.36-0.09c-0.16-0.4-0.58-0.22-0.68-0.08c-0.42,0.59-1.1,0.54-1.75,0.59
		c-0.16,0.01-0.31,0.03-0.52-0.07c0.35-0.14,0.7-0.28,1.05-0.42c-0.99,0.07-1.93,0.08-2.89,0.47c-0.88,0.36-1.97,0.36-2.97,0.51
		c-1.71,0.24-3.41,0.51-5.13,0.7c-1.16,0.13-2.33,0.12-3.49,0.22c-0.36,0.03-0.71,0.26-1.08,0.3c-0.71,0.08-1.44,0.08-2.15,0.14
		c-0.97,0.08-1.95,0.15-2.91,0.28c-0.2,0.03-0.37,0.27-0.56,0.41c-0.13,0.09-0.27,0.19-0.42,0.25c-0.26,0.1-0.54,0.18-0.81,0.27
		c0.01,0.06,0.03,0.13,0.04,0.19c0.21,0.01,0.43,0.04,0.64,0.02c3.09-0.24,6.18-0.48,9.27-0.75c2-0.17,4-0.35,5.99-0.59
		c2.61-0.32,5.22-0.63,7.81-1.07c4.78-0.81,9.62-1.13,14.44-1.58c6.58-0.6,13.16-1.19,19.75-1.8c0.55-0.05,1.2,0.04,1.57-0.52
		c0.08-0.12,0.53-0.11,0.81-0.13c1.14-0.09,2.28-0.17,3.42-0.25c1.25-0.08,2.5-0.13,3.75-0.24c2.34-0.2,4.67-0.43,7.01-0.66
		c1.88-0.18,3.77-0.38,5.65-0.58c0.6-0.06,1.27-0.02,1.78-0.23c1.84-0.77,3.83-0.63,5.74-0.88c1.4-0.18,2.81-0.2,4.22-0.31
		c0.31-0.02,0.61-0.11,0.92-0.14c0.25-0.03,0.5-0.02,0.76-0.03c0.02,0.08,0.05,0.17,0.07,0.25c-0.25,0.09-0.49,0.24-0.74,0.27
		c-1.3,0.14-2.62,0.17-3.9,0.39c-0.54,0.09-1.24-0.05-1.67,0.48c-0.09,0.11-0.58,0.09-0.84,0.01c-0.46-0.13-0.75-0.1-1.17,0.2
		c-0.4,0.28-1.03,0.36-1.57,0.48c-0.9,0.21-1.8,0.39-2.71,0.58c-0.21,0.05-0.42,0.1-0.63,0.15c-0.9,0.18-1.8,0.38-2.72,0.52
		c-0.93,0.14-1.87,0.2-2.8,0.34c-0.56,0.08-1.11,0.27-1.67,0.38c-1.2,0.23-2.41,0.44-3.6,0.68c-0.24,0.05-0.45,0.18-0.68,0.27
		c0.17,0.11,0.35,0.22,0.69,0.44c-3.27,0.38-6.4,0.75-9.57,1.12c0.06,0.07,0.1,0.15,0.14,0.15c1.02,0.01,2.06,0.1,3.07-0.01
		c4.88-0.54,9.76-1.16,14.64-1.72c2.23-0.26,4.48-0.42,6.71-0.66c1.89-0.2,3.78-0.46,5.67-0.69c0.18-0.02,0.38-0.03,0.56-0.01
		c0.34,0.03,0.68,0.13,1.01,0.12c0.89-0.04,1.79-0.11,2.67-0.21c1.29-0.15,2.58-0.34,3.87-0.51c0.27-0.04,0.55-0.05,0.82-0.07
		c0.02,0.06,0.04,0.11,0.06,0.17c-0.17,0.07-0.33,0.17-0.51,0.19c-1.56,0.22-3.12,0.41-4.67,0.64c-2.28,0.33-4.56,0.68-6.84,1.04
		c-0.15,0.02-0.28,0.15-0.36,0.36c0.22-0.01,0.45-0.02,0.67-0.03c0.02,0.04,0.03,0.07,0.05,0.11c-0.61,0.21-1.2,0.46-1.82,0.61
		c-0.67,0.15-1.38,0.2-2.07,0.38c0.12,0,0.23,0.02,0.35,0c2.36-0.27,4.7-0.13,7.06-0.12c1.05,0.01,2.12-0.17,3.18-0.27
		c1.58-0.16,3.16-0.33,4.74-0.48c1.44-0.13,2.89-0.24,4.33-0.36c0.03,0.05,0.06,0.1,0.09,0.15c-0.29,0.12-0.57,0.3-0.87,0.35
		c-0.81,0.13-1.64,0.21-2.46,0.31c0.01,0.05,0.01,0.1,0.02,0.14c0.38-0.03,0.75-0.06,1.13-0.09c0.01,0.04,0.03,0.09,0.04,0.13
		c-0.5,0.14-1,0.27-1.52,0.42c0.24,0.01,0.47,0.01,0.64,0.01c-0.04,0.2-0.08,0.4-0.12,0.58c-1.56,0.28-3.13,0.56-4.7,0.85
		c0.01,0.03,0.01,0.06,0.02,0.09c0.82-0.03,1.63-0.06,2.45-0.08c0.22,0,0.44,0.07,0.66,0.11c-0.11,0.15-0.22,0.29-0.39,0.5
		c2.25,0.36,4.33-0.8,6.56-0.54c-0.51,0.12-1.01,0.24-1.52,0.36c-1.68,0.38-3.38,0.7-5.03,1.15c-2.11,0.58-4.26,0.9-6.43,1.21
		c-1.63,0.23-3.22,0.67-4.83,1c-0.5,0.1-1.02,0.14-1.53,0.21c0.01,0.05,0.01,0.1,0.02,0.14c3.12-0.26,6.23-0.52,9.53-0.79
		c-2.11,0.47-4.05,0.9-5.97,1.33c0.32,0.39,4.97-0.01,5.95-0.55c0.05,0.04,0.09,0.08,0.14,0.12c-0.17,0.11-0.32,0.28-0.5,0.31
		c-0.43,0.07-0.78,0.12-1.07,0.47c-0.16,0.19-0.64,0.23-0.99,0.31c-1.15,0.27-2.31,0.54-3.46,0.9c1.4-0.12,2.81-0.23,4.21-0.35
		c0.01,0.06,0.03,0.11,0.04,0.17c-0.5,0.14-1,0.29-1.5,0.43c0.16,0.26,0.16,0.26-1.41,0.79c0,0.06,0,0.12,0,0.17
		c0.75-0.06,1.5-0.12,2.24-0.19c0.77-0.06,1.54-0.13,2.28-0.19c0.27,0.72,0.04,1.06-0.78,1.29c-0.65,0.19-1.29,0.42-1.93,0.63
		c0.01,0.07,0.02,0.13,0.04,0.2c1.08-0.09,2.17-0.18,3.25-0.27c0.01,0.08,0.02,0.15,0.03,0.23c-0.43,0.08-0.85,0.15-1.27,0.25
		c-1.46,0.33-3.02,0.5-4.35,1.05c-1.11,0.45-2.24,0.63-3.38,0.89c-1.14,0.26-2.27,0.51-3.4,0.78c-0.15,0.04-0.28,0.13-0.4,0.27
		c2.87-0.53,5.73-0.92,8.67-0.71c-3.06,0.78-6.32,0.89-9.32,2.05c1.15-0.1,2.29-0.19,3.42-0.28c0.01,0.07,0.02,0.15,0.04,0.22
		c-1.69,0.34-3.37,0.68-5.14,1.03c0.12,0.12,0.2,0.19,0.24,0.24c-0.99,0.26-2.01,0.52-3.01,0.8c-0.18,0.05-0.31,0.23-0.47,0.35
		c0.19,0.07,0.4,0.21,0.58,0.18c1.59-0.24,3.18-0.51,4.77-0.76c1.07-0.17,2.15-0.32,3.22-0.49c0.35-0.06,0.7-0.16,1.16-0.27
		c-0.1,0.19-0.12,0.27-0.15,0.28c-2.04,0.42-4.09,0.81-6.13,1.26c-0.99,0.22-1.92,0.59-2.91,0.82c-1.36,0.31-2.75,0.54-4.12,0.82
		c-0.9,0.18-1.79,0.4-2.67,0.67c2.05-0.25,4.1-0.46,6.13-0.75c1.4-0.2,2.77-0.54,4.17-0.78c2.04-0.35,4.08-0.66,6.13-0.98
		c0.18-0.03,0.37-0.03,0.56-0.01c-1.08,0.31-2.28,0.24-3.3,0.75c2.28-0.31,4.5-0.93,7.01-1.06c-0.8,0.68-1.67,0.59-2.43,0.74
		c-2.24,0.43-4.5,0.79-6.74,1.21c-0.71,0.13-1.57,0.23-2.07,0.59c-1.49,1.08-3.41,0.69-5.03,1.25c-0.55,0.19-1.09,0.4-1.63,0.6
		c0.03,0.09,0.06,0.18,0.08,0.26c1.39-0.22,2.79-0.44,4.18-0.67c0.01,0.05,0.03,0.11,0.04,0.16c-0.49,0.14-0.99,0.27-1.48,0.41
		c0.02,0.05,0.03,0.09,0.05,0.14c1.49-0.24,2.98-0.48,4.46-0.72c0.02,0.05,0.03,0.1,0.05,0.15c-0.6,0.12-1.19,0.25-1.79,0.37
		c-1.86,0.36-3.72,0.71-5.58,1.06c-1.2,0.23-2.41,0.44-3.61,0.67c-0.04-0.08-0.08-0.16-0.12-0.23c0.23-0.15,0.45-0.29,0.68-0.44
		c-3.23,0.49-6.55,0.56-9.69,1.56c0.99-0.08,1.97-0.16,2.96-0.25c0.01,0.05,0.02,0.1,0.03,0.15c-0.59,0.11-1.18,0.23-1.77,0.32
		c-1.65,0.23-3.3,0.44-4.95,0.68c-0.27,0.04-0.53,0.18-0.78,0.4C124.65,143.87,126.14,144.07,127.66,143.71L127.66,143.71z
		 M116.61,119.08c0.01,0.07,0.02,0.13,0.02,0.2c3.02-0.31,6.03-0.63,9.05-0.94c-0.01-0.1-0.02-0.19-0.03-0.29
		C122.64,118.39,119.62,118.74,116.61,119.08z M129.93,141.19c1.47,0.25,3.67-0.04,4.14-0.58c-0.74,0.02-1.46,0.1-2.16,0.05
		C131.41,140.62,130.23,140.86,129.93,141.19z M129.51,141.31c-0.03-0.11-0.05-0.21-0.08-0.32c-1.2,0.22-2.39,0.45-3.59,0.67
		c0.01,0.05,0.02,0.1,0.03,0.15C127.07,141.56,128.33,141.66,129.51,141.31z"/>
	<path d="M4.14,93.17c0.46-0.06,0.75-0.1,1.04-0.14C5.2,93,5.2,92.97,5.21,92.95c-0.41-0.06-0.83-0.12-1.24-0.18
		c0-0.06,0-0.12,0-0.18c1.09-0.39,2.47-0.32,3.48-0.85c-0.03-0.06-0.07-0.12-0.1-0.18c-0.55,0.13-1.09,0.26-1.49,0.36
		c-0.42-0.1-0.76-0.18-1.2-0.28c0.37-0.56,1.23-0.64,2.03-0.8c0.82-0.16,1.64-0.37,2.45-0.55c-0.01-0.06-0.01-0.11-0.02-0.17
		c-0.39,0.03-0.83-0.01-1.15,0.11c-0.65,0.25-0.77-0.06-0.85-0.31c-0.05-0.16,0.17-0.36,0.29-0.59c-0.31-0.11-0.64-0.56-1.44-0.29
		c-0.44,0.15-0.93,0.27-1.4,0.32c-0.3,0.03-0.61-0.12-0.93-0.15c-0.34-0.04-0.68-0.07-1.03-0.07c-0.6,0-1.19,0.04-1.79,0.05
		c-0.11,0-0.21-0.09-0.32-0.14c0.11-0.08,0.19-0.2,0.32-0.23c0.53-0.13,1.08-0.23,1.5-0.32c-0.52-0.13-1.09-0.28-1.66-0.42
		c0.02-0.08,0.04-0.15,0.06-0.23c0.91-0.21,1.82-0.41,2.74-0.62c-0.02-0.05-0.04-0.1-0.06-0.15c-0.31-0.01-0.62-0.02-0.93-0.03
		c0.96-0.56,1.8-1.05,2.8-1.64c-0.83-0.04-1.46-0.06-2.09-0.09c-0.01-0.05-0.01-0.1-0.02-0.16c1.47-0.32,2.94-0.64,4.41-0.95
		c0-0.08,0-0.16,0-0.23c-0.34,0-0.7-0.05-1.02,0.01c-0.54,0.1-1.04,0.29-1.57,0.42c-0.75,0.19-1.5,0.39-2.26,0.53
		c-0.53,0.1-1.08,0.1-1.64,0.07c2.12-0.55,4.29-0.99,5.6-2.49c0.58-0.08,1.27-0.18,1.96-0.28c-0.01-0.07-0.02-0.14-0.02-0.21
		c-0.83-0.28-1.72,0.06-2.5,0.23c-0.8,0.18-1.49,0.61-2.33,0.98c0.02-0.23,0.04-0.39,0.05-0.56c-0.08-0.02-0.16-0.05-0.24-0.05
		c-0.72-0.02-1.45-0.03-2.17-0.07c-0.22-0.01-0.47-0.12-0.61-0.24C0.53,82.05,0.3,81.76,0,81.44c0.68-0.06,1.5-0.12,2.31-0.19
		c0-0.05,0-0.1-0.01-0.14c-0.15-0.01-0.34,0.01-0.45-0.03c-0.25-0.1-0.47-0.24-0.7-0.36c0.29-0.1,0.58-0.27,0.87-0.3
		c0.47-0.04,0.95,0.03,1.42,0.05c0.01-0.09,0.03-0.18,0.04-0.26c-0.44-0.01-0.87-0.01-1.31-0.02c-0.06-0.05-0.11-0.09-0.17-0.14
		c0.46-0.25,0.89-0.53,1.39-0.74c0.5-0.21,1.07-0.35,1.6-0.51c-0.53-0.37-0.27-0.92,0.55-1.09c0.26-0.06,0.54-0.11,0.8-0.1
		c0.9,0.02,1.37-0.33,1.73-0.96c-0.94-0.05-1.82-0.1-2.83-0.15c0.16-0.17,0.28-0.38,0.5-0.49c0.59-0.27,1.21-0.54,1.86-0.72
		c4.1-1.18,8.38-1.59,12.69-1.92c1.58-0.12,3.18-0.24,4.74-0.5c2.02-0.34,3.99-0.87,6-1.25c3.66-0.7,7.3-1.46,11.06-1.85
		c3.23-0.34,6.44-0.85,9.66-1.24c1.61-0.2,3.25-0.26,4.86-0.44c1.99-0.23,3.97-0.53,5.95-0.81c1.18-0.17,2.37-0.35,3.55-0.53
		c2.33-0.35,4.65-0.72,6.98-1.04c0.96-0.13,1.95-0.17,2.97-0.15c-0.46,0.11-0.92,0.22-1.38,0.33c-0.01,0.08-0.02,0.16-0.03,0.24
		c0.63,0.09,1.28,0.31,1.9,0.25c1.98-0.17,3.95-0.46,5.93-0.67c1.28-0.14,2.57-0.21,3.86-0.31c0.24-0.02,0.5,0,0.72-0.06
		c2.34-0.68,4.81-0.65,7.22-0.97c1.86-0.25,3.71-0.57,5.58-0.78c2.54-0.28,5.1-0.5,7.65-0.72c0.29-0.03,0.59,0.12,0.9,0.15
		c1.31,0.12,2.54-0.29,3.8-0.47c0.08-0.01,0.18-0.05,0.24-0.09c0.82-0.66,1.95-0.55,2.99-0.68c0.49-0.06,0.97-0.16,1.5-0.38
		c-0.32-0.12-0.63-0.24-1.07-0.41c1.09-0.21,2.09-0.41,3.1-0.58c0.46-0.08,0.94-0.09,1.41-0.1c0.73-0.01,1.55,0.19,2.16,0
		c1.23-0.38,2.31,0.12,3.5-0.09c1.18-0.21,2.42-0.27,3.64-0.32c2.6-0.1,5.19-0.12,7.79-0.23c1.49-0.06,2.98-0.21,4.47-0.32
		c0.21-0.01,0.41,0,0.62,0c0.71,0,1.43-0.01,2.26-0.02c-0.08,0.1-0.23,0.29-0.49,0.62c1.08-0.09,2.12-0.17,3.16-0.26
		c1.11-0.1,2.21-0.33,3.32-0.08c0.33,0.07,0.77-0.04,1.15-0.04c1.67-0.01,3.35,0,5.02-0.03c0.63-0.01,1.27-0.1,1.9-0.16
		c0.15-0.01,0.39-0.05,0.43-0.01c0.61,0.6,1.55,0.25,2.35,0.28c0.68,0.03,1.35,0.1,2.02,0.08c1.05-0.02,2.1-0.08,3.14-0.15
		c1.55-0.11,3.09-0.24,4.63-0.36c0.74-0.06,1.48-0.12,2.22-0.18c0.03,0.07,0.06,0.14,0.08,0.21c-0.14,0.07-0.28,0.18-0.43,0.19
		c-0.83,0.1-1.67,0.18-2.5,0.27c-2.32,0.24-4.65,0.44-6.96,0.75c-0.91,0.12-1.77,0.47-2.66,0.79c1.87-0.12,3.75-0.15,5.59-0.39
		c2.68-0.34,5.28-0.01,7.93-0.08c1.27-0.04,2.54,0.03,3.79,0.13c0.96,0.07,1.89,0.27,2.8,0.4c-0.25,0.31-0.4,0.5-0.59,0.74
		c0.03,0.03,0.17,0.16,0.32,0.3c-0.09,0.04-0.15,0.09-0.23,0.1c-0.66,0.07-1.32,0.13-1.97,0.21c-0.16,0.02-0.31,0.14-0.46,0.22
		c0.11,0.07,0.22,0.15,0.33,0.22c0.24,0.15,0.49,0.3,0.86,0.52c-1.04,0.14-1.8,0.25-2.57,0.36c0,0.06-0.01,0.12-0.01,0.18
		c0.35,0.05,0.69,0.11,1.07,0.16c-0.48,0.73-1.53,0.51-2.29,0.73c-0.44,0.12-0.95,0.12-1.42,0.21c-1.1,0.21-2.19,0.43-3.28,0.65
		c-0.01,0.08-0.02,0.15-0.03,0.23c0.34,0.13,0.68,0.27,1.03,0.41c-0.49,0.89-1.91,0.51-2.98,1c0.92-0.08,1.67-0.21,2.4-0.18
		c1.01,0.04,2,0.19,3,0.3c-0.01,0.09-0.02,0.19-0.02,0.28c-1.28,0.22-2.56,0.45-3.83,0.67c1.8,0.95,4.08,0.23,6.08,0.57
		c-0.24,0.03-0.49,0.05-0.73,0.09c-1.24,0.18-2.47,0.38-3.71,0.54c-2.93,0.37-5.86,0.7-8.78,1.11c-1.03,0.14-2.02,0.46-3.28,0.76
		c0.37,0.09,0.6,0.19,0.84,0.19c2.26-0.07,4.52-0.16,6.77-0.23c1.08-0.03,2.16,0.03,3.23,0c1.58-0.05,3.15-0.15,4.73-0.21
		c0.3-0.01,0.6,0.06,0.9,0.09c0,0.08,0,0.15,0,0.23c-1.62,0.14-3.25,0.27-4.87,0.41c0,0.07,0,0.14-0.01,0.21
		c1.09,0.11,2.18,0.22,3.26,0.33c-0.01,0.07-0.03,0.15-0.04,0.22c-0.41,0.05-0.83,0.11-1.24,0.16c0,0.02,0,0.05-0.01,0.07
		c0.39,0.03,0.77,0.06,1.35,0.11c-0.87,0.2-1.55,0.35-2.29,0.52c0.5,0.15,0.98,0.29,1.44,0.42c-0.78,0.27-1.53,0.52-2.33,0.79
		c0.4,0.54,0.1,0.72-0.65,0.83c-0.54,0.08-1.28,0.04-1.6,0.63c0.37-0.01,0.65-0.02,0.94-0.02c0.79,0,1.6-0.24,2.34,0.18
		c0.27,0.15,0.92,0.01,1.4,0.01c0.32,0,0.64,0.03,1.07,0.04c-0.14,0.16-0.19,0.31-0.29,0.33c-2.22,0.49-4.45,0.96-6.85,1.47
		c-0.05,0.02-0.26,0.2-0.5,0.24c-1.06,0.17-2.09,0.33-3.12,0.65c-0.46,0.15-1.14,0.16-1.7,0.37c-0.4,0.15-1.04,0.03-1.02,0.55
		c0,0.04-0.36,0.11-0.56,0.15c-0.39,0.08-0.78,0.14-1.15,0.32c0.61,0.05,1.22,0.17,1.82,0.12c0.59-0.05,1.16-0.26,1.74-0.41
		c0.15,0.1,0.29,0.21,0.44,0.31c-0.28,0.15-0.55,0.3-0.83,0.46c0.08,0,0.34,0.01,0.59,0.03c0.02,0.04,0.04,0.08,0.06,0.11
		c-1.11,0.28-2.21,0.59-3.33,0.82c-1.08,0.22-2,0.56-2.71,1.18c-0.12,0.11-0.41,0.17-0.63,0.19c-1.33,0.14-2.64,0.26-3.83,0.8
		c-0.34,0.16-0.83,0.16-1.26,0.36c0.24,0,0.47,0,0.71,0.01c0.54,0.03,1.09,0.12,1.62,0.08c0.58-0.04,1.16-0.22,1.74-0.31
		c0.89-0.13,1.79-0.23,2.87-0.37c-0.2,0.3-0.29,0.43-0.36,0.54c1.31,0.06,2.58,0.11,3.85,0.17c0.02,0.05,0.03,0.11,0.05,0.16
		c-1.32,0.24-2.63,0.51-3.96,0.7c-1.47,0.21-2.97,0.33-4.45,0.52c-0.33,0.04-0.64,0.19-0.96,0.29c-0.18,0.06-0.36,0.16-0.54,0.19
		c-2.44,0.29-4.87,0.58-7.31,0.86c-0.89,0.1-1.78,0.13-2.66,0.27c-0.77,0.12-1.5,0.39-2.27,0.49c-3.72,0.48-7.45,0.9-11.21,1.07
		c-2.45,0.11-4.89,0.4-7.34,0.58c-2.47,0.18-4.95,0.31-7.43,0.51c-2.51,0.21-5.02,0.49-7.52,0.73c-3.37,0.33-6.75,0.65-10.12,0.96
		c-1.4,0.13-2.81,0.33-4.2,0.35c-2.65,0.03-5.01,1.09-7.66,1.1c-0.04,0.29-0.07,0.48-0.12,0.75c-1.95,0.16-3.93,0.27-5.88,0.51
		c-1.83,0.22-3.77,0.39-5.41,0.95c-1.38,0.46-2.76,0.5-4.12,0.77c-1.42,0.28-2.92,0.3-4.37,0.5c-1.12,0.16-2.22,0.42-3.41,0.65
		c0.13-0.12,0.21-0.2,0.41-0.38c-0.4,0.01-0.68,0-0.95,0.02c-1.93,0.18-3.86,0.36-5.79,0.56c-0.5,0.05-0.98,0.2-1.48,0.27
		c-1.2,0.16-2.4,0.38-3.6,0.43c-1.83,0.08-3.53,0.38-5.28,0.88c-1.2,0.34-2.65,0.21-3.98,0.29c-0.32,0.02-0.64,0.06-0.96,0.1
		c-0.26,0.04-0.51,0.13-0.76,0.15c-2.35,0.13-4.71,0.21-7.06,0.38c-1.18,0.08-2.36,0.32-3.54,0.47c-0.58,0.08-1.17,0.13-1.97,0.22
		c0.28-0.24,0.41-0.36,0.6-0.53c-4.92-0.17-9.72-0.13-14.45,1.1c-0.06-0.05-0.11-0.09-0.17-0.14c0.15-0.19,0.29-0.38,0.47-0.61
		c-2.76,0.45-5.5,0.9-8.24,1.34c-0.02-0.09-0.05-0.16-0.04-0.16c1.31-0.41,2.59-1.01,3.94-1.16c1.6-0.19,3.14-0.42,4.67-0.81
		c1.8-0.46,3.63-0.86,5.43-1.32c0.52-0.13,1-0.36,1.49-0.62c-3.08-0.29-6.02,1.05-9.1,0.86c-0.28-0.37,0.06-0.51,0.54-0.56
		c1.76-0.19,3.52-0.35,5.27-0.57c0.93-0.11,1.83-0.34,2.75-0.47c0.56-0.08,1.13-0.11,1.69-0.12c1.02-0.01,2.05,0.03,3.07,0.02
		c0.92-0.01,0.95-0.49,0.95-0.92c0-0.4-0.49-0.45-0.95-0.46c-0.71-0.02-1.42,0.02-2.13,0c-0.32-0.01-0.63-0.09-0.94-0.14
		c0.01-0.06,0.01-0.13,0.02-0.19c0.29-0.04,0.59-0.11,0.88-0.12c1.76-0.07,3.51-0.1,5.27-0.2c0.59-0.03,1.17-0.25,1.77-0.36
		c0.55-0.1,1.11-0.22,1.68-0.27c2.3-0.21,4.61-0.39,6.91-0.6c0.71-0.06,1.41-0.19,2.12-0.29c0.02-0.08,0.04-0.15,0.05-0.23
		c-0.33-0.03-0.67-0.11-1-0.09c-2.04,0.15-4.07,0.31-6.11,0.48c-4.39,0.38-8.78,0.77-13.17,1.15c-1.14,0.1-2.28,0.19-3.43,0.21
		c1.27-0.45,2.79-0.14,4.01-0.7c0-0.07-0.01-0.15-0.01-0.22c-0.5,0-1-0.04-1.49,0.01c-2.02,0.22-4.04,0.44-6.05,0.71
		c-1.74,0.24-3.47,0.56-5.2,0.81c-1.23,0.18-2.47,0.32-3.65,0.47c0.19-0.51,0.33-1.04,0.6-1.54c0.1-0.18,0.51-0.3,0.81-0.58
		c-0.4,0.03-0.81,0.04-1.21,0.11c-0.45,0.08-0.89,0.22-1.38,0.34C3.06,94.08,4.83,93.96,4.14,93.17z M99.7,89.14
		c0.01,0.12,0.02,0.24,0.03,0.36c3.96-0.33,7.92-0.66,11.88-0.99c0.41-0.03,0.82-0.09,1.23-0.13c1.46-0.12,2.93-0.22,4.39-0.36
		c0.23-0.02,0.44-0.25,0.65-0.39c-0.24-0.09-0.47-0.22-0.73-0.26c-0.25-0.04-0.53,0.02-0.8,0.05c-4.05,0.45-8.09,0.91-12.14,1.34
		C102.72,88.92,101.21,89.01,99.7,89.14z M14.92,88.6c-1.61-0.05-3.79,0.5-4.24,1.21C12.06,89.41,13.44,89.02,14.92,88.6z
		 M9.19,89.19c1.31-0.31,2.45-0.57,3.84-0.89C11.63,88.23,9.79,88.65,9.19,89.19z M15.24,93.07c-0.02-0.1-0.04-0.2-0.07-0.31
		c-1.13,0.18-2.25,0.35-3.38,0.53c0.02,0.07,0.03,0.15,0.05,0.22C12.97,93.37,14.11,93.22,15.24,93.07z M4.99,93.71
		c0.03,0.08,0.06,0.16,0.09,0.24c1.51-0.3,3.02-0.6,4.53-0.9C9.6,93,9.58,92.96,9.57,92.91C8.04,93.18,6.52,93.45,4.99,93.71z
		 M120.52,61.27c0-0.04,0-0.08,0-0.12c-1.08,0.09-2.16,0.18-3.24,0.27c0,0.04,0.01,0.08,0.01,0.12
		C118.37,61.45,119.44,61.36,120.52,61.27z M107.85,63.84c0.03,0.07,0.07,0.13,0.1,0.2c0.5-0.04,1-0.06,1.48-0.14
		c0.13-0.02,0.22-0.19,0.33-0.29c-0.15-0.05-0.31-0.17-0.43-0.14C108.83,63.57,108.34,63.72,107.85,63.84z M19.65,74
		c1.08,0.35,1.8,0.32,2.48-0.21C21.2,73.87,20.38,73.94,19.65,74z M10.19,93.58c-1.23,0.09-1.76,0.29-1.92,0.73
		C8.98,94.04,9.58,93.81,10.19,93.58z"/>
</g>
</svg>
